<?xml version="1.0" encoding="UTF-8"?>
<svg width="58px" height="58px" viewBox="0 0 58 58" version="1.1" xmlns="http://www.w3.org/2000/svg" xmlns:xlink="http://www.w3.org/1999/xlink">
    <!-- Generator: Sketch 59.1 (86144) - https://sketch.com -->
    <title>noun_wheel of fortune_1960851</title>
    <desc>Created with Sketch.</desc>
    <g id="Page-1" stroke="none" stroke-width="1" fill="none" fill-rule="evenodd">
        <g id="Artboard" transform="translate(-185.000000, -179.000000)" fill="#FFFFFF" fill-rule="nonzero">
            <g id="noun_wheel-of-fortune_1960851" transform="translate(185.000000, 178.000000)">
                <g id="Group">
                    <path d="M0,23.821 L8.137,29 L0,34.179 L0,23.821 Z M26.152,30.848 L18.674,48.9 C14.0297485,46.7091993 10.2916792,42.971837 8.1,38.328 L26.152,30.848 Z M28,31.613 L35.486,49.687 C30.6512661,51.4438913 25.3514935,51.4375167 20.521,49.669 L28,31.613 Z M37.332,48.913 L29.848,30.848 L47.917,38.332 C45.7246652,42.9822943 41.9822943,46.7246652 37.332,48.917 L37.332,48.913 Z M48.687,36.486 L30.613,29 L48.687,21.514 C50.4374142,26.3511827 50.4374142,31.6488173 48.687,36.486 Z M29.848,27.152 L37.332,9.083 C41.9822943,11.2753348 45.7246652,15.0177057 47.917,19.668 L29.848,27.152 Z M28,26.387 L20.521,8.331 C25.3514935,6.56248333 30.6512661,6.55610872 35.486,8.313 L28,26.387 Z M18.674,9.1 L26.152,27.153 L8.1,19.672 C10.2909186,15.0276278 14.0292135,11.29004 18.674,9.1 Z M7.327,21.519 L25.387,29 L7.327,36.481 C6.86221305,35.2016443 6.51837564,33.8815363 6.3,32.538 L10.534,29.844 C10.8227531,29.6605039 10.9976568,29.3421245 10.9976568,29 C10.9976568,28.6578755 10.8227531,28.3394961 10.534,28.156 L6.3,25.462 C6.51837564,24.1184637 6.86221305,22.7983557 7.327,21.519 Z M38.382,59 L17.618,59 L19.323,55.59 C24.9586956,57.4621099 31.047365,57.4701743 36.688,55.613 L38.382,59 Z M28,55.000001 C15.9046112,54.9720235 5.41869369,46.6242889 2.68,34.843 L4.48,33.697 C6.89521042,45.7992207 18.0947682,54.0971771 30.3758283,52.8836911 C42.6568884,51.670205 52.0158915,41.3408665 52.0158915,29 C52.0158915,16.6591335 42.6568884,6.32979495 30.3758283,5.11630894 C18.0947682,3.90282293 6.89521042,12.2007793 4.48,24.303 L2.68,23.156 C5.73953397,9.90996189 18.4890016,1.2587347 31.928231,3.30943869 C45.3674604,5.36014268 54.9565995,17.4200378 53.9264322,30.9757388 C52.8962649,44.5314397 41.594788,55.0037497 28,55.000001 Z" id="Shape"></path>
                    <path d="M46.582,2.944 C46.2913644,2.73607143 45.9118775,2.69898973 45.5864883,2.84672321 C45.2610991,2.9944567 45.039242,3.30456115 45.0044883,3.66022321 C44.9697347,4.01588528 45.1273644,4.36307143 45.418,4.571 C49.6632529,7.60382855 53.0486309,11.6866116 55.243,16.42 C55.406736,16.7737962 55.7611523,17.0001855 56.151,17.0000041 C56.2961527,17.0004219 56.439594,16.96866 56.571,16.907 C57.0720966,16.6752226 57.2905451,16.081204 57.059,15.58 C54.7177983,10.5330757 51.108009,6.17941548 46.582,2.944 L46.582,2.944 Z" id="Path"></path>
                    <path d="M53.629,6.657 C53.8608853,6.93634872 54.2259577,7.06807612 54.5827874,7.00115075 C54.9396172,6.93422538 55.2321448,6.6791615 55.3470445,6.33477138 C55.4619441,5.99038126 55.3811646,5.61077009 55.136,5.343 C53.841551,3.85868652 52.4278355,2.48276374 50.909,1.229 C50.6345143,0.99269565 50.2537089,0.923281802 49.9134995,1.04753852 C49.5732901,1.17179524 49.326861,1.47029777 49.2692852,1.82788296 C49.2117094,2.18546814 49.3519876,2.54623553 49.636,2.771 C51.0698452,3.9562791 52.4052208,5.25587077 53.629,6.657 Z" id="Path"></path>
                    <path d="M57.546,8.427 C57.2273877,7.98044296 56.6085048,7.87392616 56.1589328,8.18826995 C55.7093608,8.50261374 55.5969532,9.12045391 55.907,9.573 L56.171,9.958 C56.4800033,10.4158441 57.1016559,10.5365033 57.5595,10.2275 C58.0173441,9.91849668 58.1380033,9.29684406 57.829,8.839 L57.546,8.427 Z" id="Path"></path>
                </g>
            </g>
        </g>
    </g>
</svg>